<svg width="55" height="55" viewBox="0 0 55 55" fill="none" xmlns="http://www.w3.org/2000/svg">
<path d="M13.4064 39.1875C15.3543 37.6979 17.5314 36.5234 19.9377 35.664C22.3439 34.8047 24.8647 34.375 27.5002 34.375C30.1356 34.375 32.6564 34.8047 35.0627 35.664C37.4689 36.5234 39.646 37.6979 41.5939 39.1875C42.9307 37.6215 43.9715 35.8455 44.7163 33.8594C45.4611 31.8732 45.8335 29.7535 45.8335 27.5C45.8335 22.4201 44.0479 18.0946 40.4767 14.5234C36.9055 10.9522 32.58 9.16665 27.5002 9.16665C22.4203 9.16665 18.0948 10.9522 14.5236 14.5234C10.9524 18.0946 9.16683 22.4201 9.16683 27.5C9.16683 29.7535 9.53923 31.8732 10.284 33.8594C11.0288 35.8455 12.0696 37.6215 13.4064 39.1875ZM27.5002 29.7916C25.2467 29.7916 23.3465 29.0182 21.7996 27.4713C20.2528 25.9245 19.4793 24.0243 19.4793 21.7708C19.4793 19.5173 20.2528 17.6172 21.7996 16.0703C23.3465 14.5234 25.2467 13.75 27.5002 13.75C29.7536 13.75 31.6538 14.5234 33.2007 16.0703C34.7476 17.6172 35.521 19.5173 35.521 21.7708C35.521 24.0243 34.7476 25.9245 33.2007 27.4713C31.6538 29.0182 29.7536 29.7916 27.5002 29.7916ZM27.5002 50.4166C24.33 50.4166 21.3509 49.8151 18.5627 48.612C15.7745 47.4088 13.3491 45.776 11.2866 43.7135C9.22412 41.651 7.59131 39.2257 6.38818 36.4375C5.18506 33.6493 4.5835 30.6701 4.5835 27.5C4.5835 24.3298 5.18506 21.3507 6.38818 18.5625C7.59131 15.7743 9.22412 13.3489 11.2866 11.2864C13.3491 9.22394 15.7745 7.59113 18.5627 6.388C21.3509 5.18488 24.33 4.58331 27.5002 4.58331C30.6703 4.58331 33.6495 5.18488 36.4377 6.388C39.2259 7.59113 41.6512 9.22394 43.7137 11.2864C45.7762 13.3489 47.409 15.7743 48.6121 18.5625C49.8153 21.3507 50.4168 24.3298 50.4168 27.5C50.4168 30.6701 49.8153 33.6493 48.6121 36.4375C47.409 39.2257 45.7762 41.651 43.7137 43.7135C41.6512 45.776 39.2259 47.4088 36.4377 48.612C33.6495 49.8151 30.6703 50.4166 27.5002 50.4166Z" fill="#49454F"/>
</svg>
