<svg width="40" height="40" viewBox="0 0 40 40" fill="none" xmlns="http://www.w3.org/2000/svg">
<path d="M20.0002 6.66671C27.3518 6.66671 33.3335 12.6484 33.3335 20C33.3335 27.3517 27.3518 33.3334 20.0002 33.3334C12.6485 33.3334 6.66683 27.3517 6.66683 20C6.66683 12.6484 12.6485 6.66671 20.0002 6.66671ZM20.0002 3.33337C10.7952 3.33337 3.3335 10.795 3.3335 20C3.3335 29.205 10.7952 36.6667 20.0002 36.6667C29.2052 36.6667 36.6668 29.205 36.6668 20C36.6668 10.795 29.2052 3.33337 20.0002 3.33337ZM21.6668 25H18.3335V28.3334H21.6668V25ZM18.3335 21.6667H21.6668L22.5002 11.6667H17.5002L18.3335 21.6667Z" fill="#9A999A"/>
</svg>
